<?xml version="1.0" encoding="utf-8"?>
<!-- Generator: Adobe Illustrator 27.0.0, SVG Export Plug-In . SVG Version: 6.00 Build 0)  -->
<svg version="1.1"
	 id="mglogo_x5F_color_x5F_512_x5F_512_x5F_untereinander_xA0_Bild_00000050623174470980901220000003057808163977972897_"
	 xmlns="http://www.w3.org/2000/svg" xmlns:xlink="http://www.w3.org/1999/xlink" x="0px" y="0px" viewBox="0 0 512 512"
	 style="enable-background:new 0 0 512 512;" xml:space="preserve">
<style type="text/css">
	.st0{}
	.st1{fill:#4386F3;}
	.st2{fill:#FABC08;}
	.st3{fill:#E94537;}
	.st4{}
</style>
<g>
	<path class="st0" d="M255.48,511.91c-83.78,0-167.55-0.02-251.33,0.09c-3.34,0-4.14-0.55-4.13-4.05C0.13,340.05,0.13,172.15,0,4.25
		C0,0.4,1.09,0.01,4.45,0.01C172.17,0.1,339.89,0.1,507.61,0c3.5,0,4.39,0.59,4.39,4.3c-0.12,167.73-0.12,335.47,0,503.2
		c0,3.95-1.11,4.5-4.69,4.49C423.36,511.88,339.42,511.91,255.48,511.91z M167.65,143.07c-0.18,1.12-0.25,1.92-0.44,2.69
		c-3.76,15.63-15.57,25.79-33.35,28.68c-19.84,3.23-39.51-6.21-48.51-23.26c-9.59-18.19-6.55-42.06,7.17-56.26
		c17.03-17.63,46.09-18.67,64.62-2.11c2.44,2.18,3.74,2.32,5.93-0.07c3.38-3.67,6.82-7.39,10.74-10.43
		c4.23-3.28,3.23-5.35-0.26-8.33c-14.09-12.05-30.46-17.45-48.81-16.89C97.52,57.93,76.12,69.46,62.97,93.6
		c-13.34,24.5-12.71,49.59,2.46,72.99c17.71,27.32,44.31,36.43,75.48,31.09c34.75-5.96,55.93-34.42,51.91-72.83
		c-0.24-2.27-0.82-3.9-3.91-3.87c-20.15,0.15-40.3,0.12-60.46,0.02c-2.77-0.01-3.37,1.09-3.3,3.55c0.14,4.66,0.31,9.35-0.05,13.98
		c-0.3,3.94,1.22,4.68,4.82,4.62C142.41,142.94,154.9,143.07,167.65,143.07z M158.68,348.96c-9.66,0-19.32,0.13-28.98-0.07
		c-3.33-0.07-4.83,0.65-4.57,4.34c0.31,4.48,0.31,9.01,0,13.48c-0.25,3.68,1.24,4.4,4.57,4.35c11.32-0.18,22.65,0.11,33.97-0.16
		c4.1-0.1,4.22,1.32,3.18,4.51c-3.24,9.97-9.06,17.89-18.6,22.41c-17.56,8.31-34.78,7.23-50.44-4.33
		c-15.67-11.57-20.17-28.13-17.11-46.63c2.86-17.28,12.78-29.59,29.62-35.13c17.17-5.65,33.24-3.26,47.01,9.19
		c2.3,2.08,3.49,2.14,5.56-0.08c3.64-3.89,7.44-7.66,11.47-11.13c2.95-2.54,3.16-4.23,0.1-6.95c-14.29-12.73-31.08-17.99-49.99-17.8
		c-47.3,0.46-80.84,45.38-67.71,90.88c9.65,33.45,40.8,54.19,77.02,50.87c37.36-3.42,63.33-31.65,59.11-73.71
		c-0.3-2.99-1.49-4.19-4.74-4.11C178.33,349.11,168.5,348.96,158.68,348.96z M334.01,115.89c0-3.89-0.15-6.52,0.04-9.13
		c0.19-2.67-0.47-3.91-3.49-3.78c-5.49,0.23-10.99,0.16-16.49,0.02c-2.45-0.06-3.57,0.44-3.56,3.25
		c0.09,28.82,0.08,57.64,0.01,86.46c-0.01,2.64,0.84,3.45,3.44,3.36c5.49-0.17,11.01-0.31,16.48,0.03c4.07,0.26,5.37-0.88,5.31-5.14
		c-0.21-14.82-0.15-29.65,0.17-44.47c0.15-7.16,2.44-13.81,7.84-18.88c5.26-4.95,11.56-5.71,18.14-3.35
		c6.28,2.25,8.57,7.51,9.11,13.7c0.24,2.82,0.25,5.66,0.25,8.49c0.02,15.16,0.1,30.32-0.06,45.48c-0.03,3.29,0.94,4.34,4.23,4.17
		c5.15-0.27,10.35-0.37,15.48,0.02c4.29,0.32,5.6-0.83,5.57-5.37c-0.1-15.15-0.74-30.32,0.34-45.46c0.46-6.46,2.69-12.4,7.43-17.03
		c5.4-5.27,11.93-6.56,18.92-4.03c6.54,2.37,8.43,8.04,8.87,14.36c0.18,2.66,0.19,5.33,0.19,7.99c0.02,15.16,0.08,30.32-0.05,45.48
		c-0.02,2.94,0.65,4.16,3.85,4.03c5.99-0.24,11.99-0.14,17.99-0.03c2.18,0.04,3.37-0.35,3.33-2.94c-0.31-20.99,0.8-42-0.62-62.95
		c-0.99-14.72-9.81-25.89-22.29-28.83c-15.87-3.73-29.7-0.22-40.36,12.87c-0.55,0.68-0.81,1.87-2.07,1.73
		C382.1,97.27,352.44,92.34,334.01,115.89z M334.01,344.08c0-4.06-0.19-6.68,0.05-9.26c0.29-3.06-0.73-4.08-3.87-3.93
		c-5.32,0.26-10.66,0.21-15.99,0.01c-2.81-0.1-3.7,0.76-3.7,3.62c0.09,28.65,0.1,57.31-0.01,85.96c-0.01,3.03,1.16,3.58,3.82,3.5
		c5.49-0.17,11.01-0.32,16.48,0.04c4.05,0.27,4.97-1.15,4.93-5.01c-0.16-14.82-0.11-29.65,0.17-44.47
		c0.13-6.81,2.24-13.16,7.05-18.22c5.28-5.55,11.81-6.64,18.82-4.19c6.52,2.28,8.78,7.72,9.27,14.1c0.2,2.65,0.22,5.33,0.22,7.99
		c0.02,14.99,0.11,29.99-0.07,44.98c-0.04,3.56,0.64,5.11,4.61,4.82c5.14-0.37,10.34-0.39,15.48,0c4.25,0.33,5.2-1.11,5.19-5.23
		c-0.04-15.15-0.72-30.32,0.35-45.46c0.48-6.82,2.84-13.07,8.06-17.76c5.45-4.89,11.91-5.94,18.64-3.31
		c6.23,2.43,8.09,7.96,8.52,14.1c0.19,2.66,0.2,5.33,0.2,7.99c0.02,15.16,0.1,30.32-0.06,45.48c-0.03,3.29,0.93,4.32,4.23,4.17
		c5.82-0.26,11.66-0.19,17.49-0.02c2.56,0.07,3.52-0.63,3.48-3.32c-0.3-20.49,0.77-41-0.58-61.45
		c-0.86-13.06-6.31-23.88-19.36-29.02c-14.89-5.87-32.31-1.21-42.62,11.04c-0.8,0.95-1.25,2.32-2.67,2.67
		C380.26,323.01,350.18,322.27,334.01,344.08z M265.99,186.41c0,1.8,0.17,3.31-0.03,4.78c-0.54,3.81,0.74,5.27,4.8,4.97
		c5.13-0.38,10.33-0.29,15.47-0.02c3.45,0.18,4.54-0.85,4.5-4.4c-0.18-16.98-0.02-33.97-0.12-50.96
		c-0.03-5.66-0.55-11.29-2.46-16.71c-5.16-14.61-16.39-21.11-30.91-23.18c-18.58-2.66-35.48,0.4-49.09,14.59
		c-1.95,2.03-2.75,3.37,0.34,5.2c4.14,2.45,8.1,5.26,11.95,8.16c2.29,1.72,3.74,1.69,5.79-0.5c5.68-6.06,12.92-8.67,21.17-8.17
		c11.76,0.72,19.43,9.11,18.17,19.86c-1.93-0.57-3.8-1.21-5.72-1.69c-13.57-3.38-27.06-3.96-39.94,2.5
		c-18.86,9.47-22.44,34.57-7.23,48.76c10.67,9.95,34.19,15.46,49.28-0.51C262.91,188.07,263.58,186.52,265.99,186.41z M266,414.06
		c0,2.64,0.08,4.78-0.02,6.91c-0.09,1.94,0.25,3.1,2.65,3.05c6.49-0.13,12.99-0.09,19.48-0.02c2,0.02,2.59-0.88,2.56-2.72
		c-0.38-20.64,1.2-41.33-0.85-61.9c-1.39-13.94-9.39-23.57-22.75-28.29c-9.27-3.27-18.91-3.83-28.59-2.74
		c-12,1.35-22.26,6.38-30.58,15.29c-1.92,2.06-2.15,3.26,0.5,4.85c3.7,2.23,7.33,4.64,10.69,7.34c3.09,2.48,5.03,2.65,8.19-0.47
		c9.04-8.93,23.55-9.84,32.39-2.63c4.8,3.91,6.92,8.84,6.1,15.33c-2.31-0.71-4.03-1.32-5.79-1.77c-13.22-3.38-26.4-3.93-39.07,1.94
		c-19.04,8.82-23.64,33.22-9.4,48.14c10.45,10.95,34.57,16.62,49.63,1.43C262.38,416.54,263.3,414.83,266,414.06z"/>
	<path class="st1" d="M167.65,143.07c-12.75,0-25.23-0.13-37.71,0.08c-3.6,0.06-5.13-0.69-4.82-4.62c0.36-4.64,0.18-9.32,0.05-13.98
		c-0.07-2.46,0.54-3.57,3.3-3.55c20.15,0.1,40.3,0.12,60.46-0.02c3.09-0.02,3.67,1.6,3.91,3.87c4.02,38.42-17.16,66.88-51.91,72.83
		c-31.17,5.34-57.77-3.77-75.48-31.09c-15.17-23.4-15.8-48.49-2.46-72.99c13.14-24.14,34.54-35.66,61.76-36.49
		c18.35-0.56,34.72,4.84,48.81,16.89c3.48,2.98,4.48,5.05,0.26,8.33c-3.92,3.04-7.36,6.76-10.74,10.43
		c-2.19,2.39-3.49,2.25-5.93,0.07c-18.53-16.56-47.58-15.52-64.62,2.11c-13.72,14.2-16.76,38.07-7.17,56.26
		c8.99,17.05,28.67,26.48,48.51,23.26c17.78-2.89,29.6-13.05,33.35-28.68C167.39,144.99,167.47,144.19,167.65,143.07z"/>
	<path class="st1" d="M158.68,348.96c9.83,0,19.66,0.15,29.48-0.08c3.25-0.08,4.44,1.13,4.74,4.11
		c4.22,42.07-21.75,70.29-59.11,73.71c-36.23,3.32-67.38-17.42-77.02-50.87c-13.12-45.51,20.41-90.42,67.71-90.88
		c18.91-0.18,35.7,5.07,49.99,17.8c3.06,2.73,2.85,4.41-0.1,6.95c-4.03,3.47-7.83,7.24-11.47,11.13c-2.08,2.22-3.27,2.15-5.56,0.08
		c-13.77-12.45-29.84-14.84-47.01-9.19c-16.84,5.54-26.76,17.86-29.62,35.13c-3.06,18.5,1.43,35.06,17.11,46.63
		c15.67,11.56,32.88,12.65,50.44,4.33c9.54-4.52,15.36-12.44,18.6-22.41c1.04-3.19,0.92-4.61-3.18-4.51
		c-11.32,0.28-22.65-0.02-33.97,0.16c-3.34,0.05-4.83-0.67-4.57-4.35c0.31-4.48,0.31-9.01,0-13.48c-0.26-3.69,1.24-4.41,4.57-4.34
		C139.36,349.09,149.02,348.96,158.68,348.96z"/>
	<path class="st2" d="M334.01,115.89c18.43-23.55,48.1-18.62,58.01,0.04c1.26,0.14,1.52-1.06,2.07-1.73
		c10.66-13.09,24.49-16.6,40.36-12.87c12.49,2.94,21.3,14.11,22.29,28.83c1.42,20.95,0.32,41.97,0.62,62.95
		c0.04,2.59-1.15,2.98-3.33,2.94c-6-0.1-12-0.21-17.99,0.03c-3.2,0.13-3.88-1.09-3.85-4.03c0.12-15.16,0.07-30.32,0.05-45.48
		c0-2.66-0.01-5.34-0.19-7.99c-0.44-6.32-2.33-11.99-8.87-14.36c-6.99-2.54-13.53-1.24-18.92,4.03c-4.74,4.63-6.96,10.57-7.43,17.03
		c-1.09,15.14-0.45,30.31-0.34,45.46c0.03,4.53-1.27,5.69-5.57,5.37c-5.14-0.39-10.33-0.29-15.48-0.02
		c-3.29,0.17-4.27-0.87-4.23-4.17c0.16-15.16,0.08-30.32,0.06-45.48c0-2.83-0.01-5.67-0.25-8.49c-0.54-6.19-2.83-11.45-9.11-13.7
		c-6.58-2.36-12.88-1.6-18.14,3.35c-5.4,5.08-7.69,11.72-7.84,18.88c-0.32,14.82-0.38,29.65-0.17,44.47
		c0.06,4.27-1.24,5.4-5.31,5.14c-5.48-0.35-10.99-0.21-16.48-0.03c-2.6,0.08-3.45-0.73-3.44-3.36c0.08-28.82,0.08-57.64-0.01-86.46
		c-0.01-2.81,1.11-3.31,3.56-3.25c5.49,0.14,11,0.21,16.49-0.02c3.02-0.13,3.69,1.11,3.49,3.78
		C333.86,109.37,334.01,112,334.01,115.89z"/>
	<path class="st2" d="M334.01,344.08c16.17-21.82,46.25-21.07,58.13-0.17c1.42-0.35,1.87-1.72,2.67-2.67
		c10.31-12.25,27.73-16.92,42.62-11.04c13.05,5.15,18.5,15.96,19.36,29.02c1.35,20.45,0.28,40.97,0.58,61.45
		c0.04,2.69-0.92,3.4-3.48,3.32c-5.83-0.17-11.67-0.24-17.49,0.02c-3.3,0.15-4.26-0.89-4.23-4.17c0.16-15.16,0.08-30.32,0.06-45.48
		c0-2.66-0.02-5.34-0.2-7.99c-0.43-6.14-2.29-11.67-8.52-14.1c-6.73-2.63-13.19-1.57-18.64,3.31c-5.23,4.69-7.58,10.94-8.06,17.76
		c-1.07,15.14-0.39,30.31-0.35,45.46c0.01,4.12-0.93,5.56-5.19,5.23c-5.13-0.39-10.34-0.37-15.48,0c-3.96,0.29-4.65-1.26-4.61-4.82
		c0.18-14.99,0.09-29.99,0.07-44.98c0-2.66-0.02-5.34-0.22-7.99c-0.49-6.38-2.75-11.83-9.27-14.1c-7.01-2.45-13.55-1.36-18.82,4.19
		c-4.82,5.06-6.92,11.41-7.05,18.22c-0.28,14.82-0.33,29.65-0.17,44.47c0.04,3.86-0.88,5.28-4.93,5.01
		c-5.47-0.37-10.99-0.21-16.48-0.04c-2.65,0.08-3.83-0.47-3.82-3.5c0.1-28.65,0.1-57.31,0.01-85.96c-0.01-2.86,0.89-3.72,3.7-3.62
		c5.32,0.2,10.67,0.25,15.99-0.01c3.14-0.15,4.15,0.87,3.87,3.93C333.81,337.4,334.01,340.02,334.01,344.08z"/>
	<path class="st3" d="M265.99,186.41c-2.42,0.11-3.08,1.66-4.04,2.67c-15.08,15.97-38.61,10.46-49.28,0.51
		c-15.21-14.19-11.63-39.29,7.23-48.76c12.87-6.46,26.36-5.88,39.94-2.5c1.92,0.48,3.8,1.12,5.72,1.69
		c1.27-10.75-6.4-19.15-18.17-19.86c-8.25-0.5-15.48,2.11-21.17,8.17c-2.06,2.19-3.51,2.22-5.79,0.5c-3.85-2.9-7.8-5.71-11.95-8.16
		c-3.09-1.83-2.28-3.17-0.34-5.2c13.61-14.19,30.51-17.25,49.09-14.59c14.51,2.08,25.75,8.57,30.91,23.18
		c1.91,5.42,2.43,11.06,2.46,16.71c0.1,16.98-0.06,33.97,0.12,50.96c0.04,3.55-1.05,4.59-4.5,4.4c-5.15-0.27-10.34-0.36-15.47,0.02
		c-4.06,0.3-5.34-1.16-4.8-4.97C266.17,189.72,265.99,188.21,265.99,186.41z M247.37,154.07c-4.36-0.03-7.79,0.56-10.71,1.84
		c-5.32,2.33-8.58,6.89-8.46,11.84c0.11,4.95,3.63,9.24,9.2,11.2c12.07,4.26,26.28-4.27,28.38-16.95c0.38-2.3-0.04-3.74-2.42-4.6
		C258.17,155.52,252.94,154.02,247.37,154.07z"/>
	<path class="st3" d="M266,414.06c-2.7,0.77-3.62,2.48-4.86,3.73c-15.06,15.18-39.17,9.52-49.63-1.43
		c-14.25-14.93-9.64-39.33,9.4-48.14c12.67-5.87,25.85-5.31,39.07-1.94c1.76,0.45,3.48,1.06,5.79,1.77
		c0.82-6.49-1.3-11.43-6.1-15.33c-8.85-7.21-23.35-6.3-32.39,2.63c-3.16,3.12-5.1,2.95-8.19,0.47c-3.36-2.7-6.99-5.11-10.69-7.34
		c-2.65-1.59-2.42-2.79-0.5-4.85c8.32-8.9,18.58-13.93,30.58-15.29c9.68-1.09,19.32-0.53,28.59,2.74
		c13.35,4.72,21.35,14.34,22.75,28.29c2.05,20.57,0.47,41.26,0.85,61.9c0.03,1.84-0.56,2.74-2.56,2.72
		c-6.49-0.07-12.99-0.11-19.48,0.02c-2.39,0.05-2.74-1.11-2.65-3.05C266.07,418.84,266,416.71,266,414.06z M246.9,381.98
		c-3.35-0.14-6.94,0.4-10.34,1.89c-5.3,2.32-8.53,6.96-8.36,11.9c0.17,4.96,3.7,9.18,9.3,11.13c12.08,4.19,26.32-4.45,28.31-17.08
		c0.37-2.38-0.24-3.71-2.54-4.54C258.07,383.4,252.84,381.91,246.9,381.98z"/>
	<path class="st4" d="M247.37,154.06c5.57-0.04,10.8,1.46,15.99,3.34c2.38,0.86,2.8,2.3,2.42,4.6
		c-2.1,12.69-16.32,21.22-28.38,16.95c-5.57-1.97-9.09-6.25-9.2-11.2c-0.11-4.95,3.14-9.51,8.46-11.84
		C239.58,154.63,243,154.04,247.37,154.06z"/>
	<path class="st4" d="M246.9,381.98c5.93-0.07,11.17,1.42,16.36,3.29c2.3,0.83,2.92,2.16,2.54,4.54
		c-1.99,12.63-16.23,21.27-28.31,17.08c-5.6-1.94-9.13-6.16-9.3-11.13c-0.17-4.94,3.06-9.58,8.36-11.9
		C239.97,382.38,243.56,381.85,246.9,381.98z"/>
</g>
</svg>
