<?xml version="1.0" encoding="UTF-8" standalone="no"?>
<!-- Generator: Adobe Illustrator 27.0.0, SVG Export Plug-In . SVG Version: 6.00 Build 0)  -->

<svg
   version="1.1"
   id="Ebene_1"
   x="0px"
   y="0px"
   viewBox="0 0 404.20143 370.11666"
   xml:space="preserve"
   sodipodi:docname="mglogo_color_512_512_untereinander2.svg"
   width="404.20145"
   height="370.11667"
   inkscape:version="1.2.1 (9c6d41e410, 2022-07-14)"
   xmlns:inkscape="http://www.inkscape.org/namespaces/inkscape"
   xmlns:sodipodi="http://sodipodi.sourceforge.net/DTD/sodipodi-0.dtd"
   xmlns="http://www.w3.org/2000/svg"
   xmlns:svg="http://www.w3.org/2000/svg"><defs
   id="defs21" /><sodipodi:namedview
   id="namedview19"
   pagecolor="#ffffff"
   bordercolor="#666666"
   borderopacity="1.0"
   inkscape:showpageshadow="2"
   inkscape:pageopacity="0.0"
   inkscape:pagecheckerboard="0"
   inkscape:deskcolor="#d1d1d1"
   showgrid="false"
   inkscape:zoom="0.96687214"
   inkscape:cx="219.78087"
   inkscape:cy="374.92031"
   inkscape:window-width="1920"
   inkscape:window-height="1001"
   inkscape:window-x="-9"
   inkscape:window-y="-9"
   inkscape:window-maximized="1"
   inkscape:current-layer="Ebene_1" />
<style
   type="text/css"
   id="style2">
	.st0{fill:#4386F3;}
	.st1{fill:#FABC08;}
	.st2{fill:#E94537;}
</style>
<g
   id="g16"
   transform="translate(-73.379863,-20.960609)">
	<path
   class="st0"
   d="m 187.6,107 c -12.76,0 -25.24,-0.13 -37.72,0.08 -3.6,0.06 -5.13,-0.69 -4.83,-4.63 0.36,-4.64 0.18,-9.33 0.05,-13.99 -0.07,-2.47 0.54,-3.57 3.3,-3.56 20.16,0.1 40.32,0.12 60.48,-0.02 3.09,-0.02 3.68,1.6 3.91,3.87 4.02,38.43 -17.17,66.9 -51.93,72.86 -31.19,5.35 -57.8,-3.77 -75.52,-31.1 C 70.16,107.1 69.53,82 82.88,57.49 96.03,33.36 117.44,21.83 144.68,21 c 18.36,-0.56 34.73,4.84 48.83,16.9 3.48,2.98 4.48,5.05 0.26,8.33 -3.92,3.04 -7.37,6.76 -10.75,10.43 -2.19,2.39 -3.49,2.25 -5.93,0.07 -18.53,-16.57 -47.6,-15.53 -64.64,2.11 -13.73,14.21 -16.77,38.09 -7.17,56.28 9,17.06 28.68,26.49 48.53,23.26 17.79,-2.89 29.61,-13.05 33.37,-28.69 0.17,-0.78 0.24,-1.57 0.42,-2.69 z"
   id="path4" />
	<path
   class="st0"
   d="m 178.63,312.96 c 9.83,0 19.66,0.15 29.49,-0.08 3.26,-0.08 4.44,1.13 4.74,4.11 4.22,42.08 -21.75,70.32 -59.13,73.74 -36.24,3.32 -67.41,-17.43 -77.06,-50.89 -13.13,-45.52 20.42,-90.45 67.74,-90.92 18.92,-0.18 35.71,5.07 50.01,17.81 3.06,2.73 2.85,4.42 -0.1,6.96 -4.03,3.47 -7.83,7.24 -11.47,11.13 -2.08,2.22 -3.27,2.15 -5.57,0.08 -13.77,-12.45 -29.85,-14.84 -47.03,-9.19 -16.85,5.55 -26.77,17.86 -29.63,35.14 -3.06,18.51 1.43,35.07 17.11,46.65 15.67,11.57 32.9,12.65 50.47,4.34 9.55,-4.52 15.37,-12.44 18.61,-22.42 1.04,-3.19 0.92,-4.61 -3.18,-4.51 -11.32,0.28 -22.66,-0.02 -33.99,0.16 -3.34,0.05 -4.83,-0.67 -4.58,-4.35 0.31,-4.48 0.31,-9.01 0,-13.49 -0.26,-3.69 1.24,-4.41 4.58,-4.34 9.66,0.2 19.33,0.07 28.99,0.07 z"
   id="path6" />
	<path
   class="st1"
   d="m 354.04,79.8 c 18.44,-23.56 48.12,-18.62 58.04,0.04 1.26,0.14 1.52,-1.06 2.07,-1.73 10.67,-13.09 24.5,-16.61 40.38,-12.87 12.49,2.94 21.31,14.12 22.3,28.84 1.42,20.96 0.32,41.98 0.62,62.97 0.04,2.59 -1.15,2.98 -3.33,2.94 -6,-0.1 -12.01,-0.21 -18,0.03 -3.2,0.13 -3.88,-1.09 -3.85,-4.03 0.12,-15.16 0.07,-30.33 0.05,-45.5 0,-2.67 -0.01,-5.34 -0.19,-7.99 -0.44,-6.32 -2.33,-11.99 -8.87,-14.36 -7,-2.54 -13.53,-1.24 -18.93,4.03 -4.74,4.63 -6.97,10.58 -7.43,17.04 -1.09,15.14 -0.45,30.32 -0.34,45.47 0.03,4.54 -1.27,5.69 -5.57,5.37 -5.14,-0.39 -10.34,-0.29 -15.49,-0.02 -3.3,0.17 -4.27,-0.87 -4.23,-4.17 0.16,-15.16 0.08,-30.33 0.06,-45.5 0,-2.83 -0.01,-5.67 -0.25,-8.49 -0.54,-6.19 -2.83,-11.46 -9.11,-13.71 -6.58,-2.36 -12.89,-1.6 -18.15,3.35 -5.4,5.08 -7.69,11.72 -7.84,18.89 -0.32,14.83 -0.38,29.66 -0.17,44.49 0.06,4.27 -1.24,5.4 -5.31,5.15 -5.48,-0.35 -11,-0.21 -16.49,-0.03 -2.6,0.08 -3.45,-0.73 -3.44,-3.36 0.08,-28.83 0.08,-57.66 -0.01,-86.49 -0.01,-2.81 1.11,-3.31 3.56,-3.25 5.5,0.14 11.01,0.21 16.5,-0.02 3.03,-0.13 3.69,1.11 3.49,3.78 -0.22,2.61 -0.07,5.25 -0.07,9.13 z"
   id="path8" />
	<path
   class="st1"
   d="m 354.04,308.07 c 16.18,-21.82 46.27,-21.08 58.16,-0.17 1.42,-0.35 1.87,-1.72 2.67,-2.67 10.32,-12.25 27.74,-16.92 42.64,-11.05 13.05,5.15 18.51,15.97 19.37,29.03 1.35,20.46 0.28,40.98 0.58,61.48 0.04,2.69 -0.92,3.4 -3.48,3.32 -5.83,-0.17 -11.67,-0.24 -17.49,0.02 -3.3,0.15 -4.26,-0.89 -4.23,-4.17 0.16,-15.16 0.08,-30.33 0.06,-45.5 0,-2.67 -0.02,-5.34 -0.2,-7.99 -0.43,-6.14 -2.29,-11.67 -8.52,-14.1 -6.73,-2.63 -13.2,-1.57 -18.65,3.32 -5.23,4.69 -7.58,10.95 -8.06,17.77 -1.07,15.14 -0.39,30.32 -0.35,45.48 0.01,4.12 -0.93,5.56 -5.19,5.23 -5.14,-0.39 -10.35,-0.37 -15.48,0 -3.96,0.29 -4.65,-1.26 -4.61,-4.82 0.18,-15 0.09,-30 0.07,-45 0,-2.66 -0.02,-5.34 -0.22,-7.99 -0.49,-6.38 -2.75,-11.83 -9.27,-14.11 -7.02,-2.45 -13.55,-1.36 -18.83,4.19 -4.82,5.07 -6.93,11.42 -7.05,18.23 -0.28,14.83 -0.33,29.66 -0.17,44.49 0.04,3.86 -0.88,5.28 -4.93,5.01 -5.48,-0.37 -11,-0.21 -16.49,-0.04 -2.66,0.08 -3.83,-0.47 -3.82,-3.5 0.1,-28.66 0.1,-57.33 0.01,-85.99 -0.01,-2.86 0.89,-3.73 3.7,-3.62 5.33,0.2 10.67,0.25 15.99,-0.01 3.14,-0.15 4.16,0.87 3.87,3.93 -0.28,2.55 -0.08,5.17 -0.08,9.23 z"
   id="path10" />
	<path
   class="st2"
   d="m 285.99,150.35 c -2.42,0.11 -3.08,1.66 -4.04,2.67 -15.09,15.98 -38.63,10.47 -49.3,0.51 -15.22,-14.2 -11.64,-39.31 7.23,-48.78 12.88,-6.46 26.37,-5.89 39.95,-2.5 1.92,0.48 3.8,1.12 5.72,1.69 1.27,-10.76 -6.41,-19.15 -18.17,-19.87 -8.25,-0.5 -15.49,2.11 -21.17,8.17 -2.06,2.19 -3.51,2.22 -5.8,0.5 -3.85,-2.9 -7.81,-5.71 -11.95,-8.16 -3.09,-1.83 -2.29,-3.17 -0.34,-5.2 13.62,-14.19 30.52,-17.25 49.11,-14.59 14.52,2.08 25.76,8.58 30.92,23.19 1.91,5.42 2.43,11.06 2.46,16.72 0.1,16.99 -0.06,33.98 0.12,50.97 0.04,3.55 -1.05,4.59 -4.5,4.4 -5.15,-0.27 -10.35,-0.36 -15.48,0.02 -4.06,0.3 -5.34,-1.16 -4.8,-4.97 0.22,-1.46 0.04,-2.97 0.04,-4.77 z m -18.63,-32.36 c -4.36,-0.03 -7.79,0.56 -10.71,1.84 -5.32,2.33 -8.58,6.89 -8.46,11.84 0.11,4.95 3.63,9.24 9.2,11.21 12.07,4.27 26.29,-4.27 28.4,-16.96 0.38,-2.3 -0.04,-3.74 -2.42,-4.6 -5.2,-1.88 -10.44,-3.38 -16.01,-3.33 z"
   id="path12" />
	<path
   class="st2"
   d="m 286,378.08 c -2.7,0.77 -3.62,2.48 -4.86,3.73 -15.07,15.19 -39.19,9.52 -49.65,-1.43 -14.25,-14.93 -9.65,-39.34 9.4,-48.16 12.67,-5.87 25.86,-5.32 39.08,-1.94 1.76,0.45 3.48,1.06 5.79,1.77 0.82,-6.49 -1.3,-11.43 -6.1,-15.34 -8.85,-7.21 -23.36,-6.3 -32.41,2.63 -3.16,3.12 -5.1,2.95 -8.19,0.47 -3.37,-2.7 -7,-5.11 -10.7,-7.34 -2.65,-1.59 -2.42,-2.79 -0.5,-4.85 8.32,-8.91 18.59,-13.94 30.59,-15.29 9.68,-1.09 19.33,-0.53 28.6,2.74 13.36,4.72 21.36,14.35 22.76,28.3 2.05,20.58 0.47,41.28 0.85,61.92 0.03,1.84 -0.56,2.74 -2.56,2.72 -6.5,-0.07 -12.99,-0.11 -19.49,0.02 -2.39,0.05 -2.74,-1.11 -2.65,-3.05 0.11,-2.12 0.04,-4.25 0.04,-6.9 z m -19.1,-32.09 c -3.35,-0.14 -6.94,0.4 -10.35,1.89 -5.3,2.32 -8.53,6.96 -8.37,11.9 0.17,4.96 3.7,9.19 9.3,11.13 12.09,4.19 26.33,-4.45 28.32,-17.09 0.37,-2.38 -0.24,-3.71 -2.55,-4.54 -5.18,-1.87 -10.42,-3.36 -16.35,-3.29 z"
   id="path14" />
</g>
</svg>
